<?xml version="1.0" encoding="UTF-8"?>
<svg id="Layer_1" xmlns="http://www.w3.org/2000/svg" version="1.1" viewBox="0 0 291.89 73.09">
  <!-- Generator: Adobe Illustrator 29.6.1, SVG Export Plug-In . SVG Version: 2.1.1 Build 9)  -->
  <defs>
    <style>
      .st0 {
        fill: #ef473a;
      }

      .st1 {
        fill: #1a5caa;
      }
    </style>
  </defs>
  <g>
    <g>
      <path class="st0" d="M36.71,54.46l-11.9-35.7c-1.8,1.16-3.42,2.59-4.82,4.23-.55.64-1.05,1.31-1.51,2l12.48,37.43c1.85.42,3.77.65,5.75.65s3.89-.23,5.75-.65l5.76-17.29h-8.41l-3.11,9.32Z"/>
      <path class="st0" d="M52.47,7.18l-8.67,26h8.4l7.08-21.25c-2.06-1.85-4.35-3.44-6.82-4.75Z"/>
    </g>
    <path class="st1" d="M70.6,37.17c0,1.35-.09,2.68-.24,3.99-1.87,15.86-14.72,28.39-30.72,29.76-.96.08-1.93.14-2.92.14s-1.96-.05-2.92-.14c-17.32-1.48-30.97-16.05-30.97-33.75,0-10.02,4.37-19.03,11.3-25.24,2.07-1.85,4.35-3.44,6.83-4.75,4.71-2.48,10.07-3.9,15.76-3.9,4.26,0,8.34.8,12.11,2.24l-2.52,7.57c-2.97-1.19-6.2-1.84-9.58-1.84-4.82,0-9.33,1.32-13.2,3.62-2.48,1.48-4.7,3.35-6.56,5.54-3.84,4.52-6.16,10.37-6.16,16.75,0,12.31,8.64,22.64,20.16,25.26,1.85.42,3.77.65,5.75.65s3.9-.23,5.75-.65c10.26-2.34,18.23-10.77,19.86-21.28h-25.61v-7.97h33.64c.16,1.31.24,2.64.24,3.99Z"/>
  </g>
  <g>
    <path class="st0" d="M114.86,49.5c2.09,0,3.71-.8,4.87-2.02v1.56h5.3v-16.91h-5.3v1.56c-1.16-1.26-2.79-2.02-4.87-2.02-4.58,0-8.22,3.78-8.22,8.92s3.65,8.92,8.22,8.92ZM115.82,36.37c2.29,0,4.05,1.66,4.05,4.18s-1.76,4.24-4.05,4.24-3.95-1.69-3.95-4.24,1.66-4.18,3.95-4.18Z"/>
    <rect class="st0" x="129.02" y="24.83" width="5.3" height="24.2"/>
    <path class="st0" d="M149.74,47.28v1.76h5.31v-16.91h-5.31v8.26c0,2.59-1.23,4.21-3.28,4.21s-3.02-1.46-3.02-3.68v-8.79h-5.3v9.85c0,4.48,2.09,7.53,6.6,7.53,2.19,0,3.88-.93,5.01-2.22Z"/>
    <path class="st0" d="M175.57,44.76l-4.77-1.39c-.56,1.03-1.59,1.72-3.38,1.72-2.72,0-3.88-1.33-4.21-2.92h12.5c.1-.56.13-1.16.13-1.76,0-4.87-3.25-8.75-8.85-8.75s-8.95,3.88-8.95,8.95,3.78,8.89,9.28,8.89c4.51,0,7.36-2.65,8.26-4.74ZM166.95,36.11c2.19,0,3.55,1.36,3.71,2.88h-7.46c.23-1.43,1.56-2.88,3.75-2.88Z"/>
    <path class="st1" d="M195,40.58l6.1-.03c-.43,1.92-2.25,3.85-5.6,3.85-4.87,0-7.36-3.38-7.36-7s2.72-6.86,6.73-6.86c3.25,0,5.04,1.39,6.13,3.48l5.11-1.46c-1.43-3.85-5.37-7.19-11.31-7.19-6.93,0-12.23,5.21-12.23,12.07s5.27,12.07,12.5,12.07,11.8-4.64,11.8-10.91v-2.75h-11.87v4.74Z"/>
    <rect class="st1" x="209.95" y="24.83" width="5.3" height="24.2"/>
    <path class="st1" d="M227.33,31.66c-5.27,0-9.09,3.85-9.09,8.92s3.81,8.92,9.09,8.92,9.08-3.85,9.08-8.92-3.81-8.92-9.08-8.92ZM227.33,44.73c-2.42,0-3.95-1.76-3.95-4.14s1.53-4.14,3.95-4.14,3.95,1.76,3.95,4.14-1.53,4.14-3.95,4.14Z"/>
    <path class="st1" d="M257.8,40.58c0-5.14-3.65-8.92-8.22-8.92-2.09,0-3.71.76-4.87,2.02v-8.85h-5.3v24.2h5.3v-1.56c1.16,1.23,2.79,2.02,4.87,2.02,4.58,0,8.22-3.78,8.22-8.92ZM244.57,40.55c0-2.52,1.76-4.18,4.05-4.18s3.95,1.66,3.95,4.18-1.66,4.24-3.95,4.24-4.05-1.69-4.05-4.24Z"/>
    <path class="st1" d="M278.19,49.04v-16.91h-5.3v1.56c-1.16-1.26-2.79-2.02-4.87-2.02-4.58,0-8.22,3.78-8.22,8.92s3.65,8.92,8.22,8.92c2.09,0,3.71-.8,4.87-2.02v1.56h5.3ZM268.97,44.79c-2.29,0-3.95-1.69-3.95-4.24s1.66-4.18,3.95-4.18,4.05,1.66,4.05,4.18-1.76,4.24-4.05,4.24Z"/>
    <rect class="st1" x="282.17" y="24.83" width="5.3" height="24.2"/>
    <polygon class="st0" points="102.23 25.83 96.23 41.97 90.26 25.83 84.16 25.83 93.21 49.04 99.24 49.04 108.29 25.83 102.23 25.83"/>
  </g>
</svg>
