<svg xmlns="http://www.w3.org/2000/svg" viewBox="0 0 73 73">
  <defs>
    <style>
      .st0 { fill: #ef473a; }
      .st1 { fill: #1a5caa; }
    </style>
  </defs>
  <g>
    <g>
      <path class="st0" d="M36.71,54.46l-11.9-35.7c-1.8,1.16-3.42,2.59-4.82,4.23-.55.64-1.05,1.31-1.51,2l12.48,37.43c1.85.42,3.77.65,5.75.65s3.89-.23,5.75-.65l5.76-17.29h-8.41l-3.11,9.32Z"/>
      <path class="st0" d="M52.47,7.18l-8.67,26h8.4l7.08-21.25c-2.06-1.85-4.35-3.44-6.82-4.75Z"/>
    </g>
    <path class="st1" d="M70.6,37.17c0,1.35-.09,2.68-.24,3.99-1.87,15.86-14.72,28.39-30.72,29.76-.96.08-1.93.14-2.92.14s-1.96-.05-2.92-.14c-17.32-1.48-30.97-16.05-30.97-33.75,0-10.02,4.37-19.03,11.3-25.24,2.07-1.85,4.35-3.44,6.83-4.75,4.71-2.48,10.07-3.9,15.76-3.9,4.26,0,8.34.8,12.11,2.24l-2.52,7.57c-2.97-1.19-6.2-1.84-9.58-1.84-4.82,0-9.33,1.32-13.2,3.62-2.48,1.48-4.7,3.35-6.56,5.54-3.84,4.52-6.16,10.37-6.16,16.75,0,12.31,8.64,22.64,20.16,25.26,1.85.42,3.77.65,5.75.65s3.9-.23,5.75-.65c10.26-2.34,18.23-10.77,19.86-21.28h-25.61v-7.97h33.64c.16,1.31.24,2.64.24,3.99Z"/>
  </g>
</svg>
